<?xml version="1.0" standalone="no"?>
<!DOCTYPE svg PUBLIC "-//W3C//DTD SVG 20010904//EN"
 "http://www.w3.org/TR/2001/REC-SVG-20010904/DTD/svg10.dtd">
<svg version="1.0" xmlns="http://www.w3.org/2000/svg"
 width="512.000000pt" height="512.000000pt" viewBox="0 0 512.000000 512.000000"
 preserveAspectRatio="xMidYMid meet">

<g transform="translate(0.000000,512.000000) scale(0.100000,-0.100000)"
fill="#000000" stroke="none">
<path d="M2010 4855 c0 -3 81 -116 180 -252 99 -137 183 -258 186 -270 4 -15
-4 -39 -26 -74 -17 -28 -30 -52 -28 -54 2 -1 54 -48 116 -103 62 -56 117 -102
123 -102 16 0 234 203 231 215 -2 6 -12 19 -23 30 -25 28 -34 77 -19 106 7 13
91 131 186 261 96 131 174 240 174 243 0 3 -247 5 -550 5 -302 0 -550 -2 -550
-5z"/>
<path d="M1796 4781 l-28 -29 107 -334 c59 -183 108 -334 109 -335 1 -1 48 52
104 118 l103 119 -177 245 c-97 135 -180 245 -184 245 -3 0 -19 -13 -34 -29z"/>
<path d="M3263 4783 c-11 -16 -91 -126 -177 -245 l-158 -218 103 -120 c57 -65
104 -118 105 -117 1 1 50 152 109 335 l107 334 -28 29 c-15 16 -31 29 -34 29
-3 0 -15 -12 -27 -27z"/>
<path d="M1460 4630 c-80 -21 -235 -61 -346 -90 l-201 -52 79 -201 c180 -462
237 -704 258 -1103 5 -105 10 -746 10 -1437 l0 -1248 24 -24 c111 -111 631
-215 1077 -215 l109 0 -2 1797 -3 1797 -128 113 -128 113 -93 -107 c-110 -128
-123 -139 -157 -148 -21 -5 -33 0 -57 22 -26 25 -45 76 -154 425 -67 219 -127
398 -133 397 -5 0 -75 -18 -155 -39z m895 -955 c54 -53 16 -145 -58 -145 -47
0 -87 40 -87 87 0 74 92 112 145 58z m-16 -530 c32 -16 41 -33 41 -79 0 -73
-99 -108 -147 -51 -34 39 -31 87 8 119 35 30 58 32 98 11z m10 -561 c25 -20
31 -34 31 -64 0 -30 -6 -44 -31 -64 -17 -14 -42 -26 -56 -26 -36 0 -83 51 -83
90 0 39 47 90 83 90 14 0 39 -12 56 -26z m9 -556 c22 -21 29 -68 16 -103 -8
-19 -55 -45 -83 -45 -34 0 -81 48 -81 84 0 83 87 120 148 64z m-3 -543 c17
-16 25 -35 25 -60 0 -25 -8 -44 -25 -60 -16 -17 -35 -25 -60 -25 -25 0 -44 8
-60 25 -17 16 -25 35 -25 60 0 25 8 44 25 60 16 17 35 25 60 25 25 0 44 -8 60
-25z m-16 -540 c32 -16 41 -33 41 -79 0 -73 -99 -108 -147 -51 -34 39 -31 87
8 119 35 30 58 32 98 11z"/>
<path d="M3381 4278 c-68 -216 -129 -403 -137 -416 -19 -29 -60 -45 -90 -35
-13 4 -72 62 -131 128 -59 66 -111 119 -116 117 -5 -1 -65 -52 -133 -113
l-124 -111 0 -1795 0 -1796 183 6 c474 17 878 102 1017 215 l25 20 5 1404 c5
1260 8 1416 23 1527 41 290 101 503 253 890 35 90 62 166 60 168 -4 4 -694
183 -707 183 -3 0 -61 -177 -128 -392z m258 -922 c49 -26 51 -42 50 -394 -1
-428 21 -384 -236 -474 l-193 -66 -72 27 c-40 16 -124 45 -186 65 -74 25 -117
45 -127 59 -13 18 -15 78 -15 383 l0 362 31 26 31 26 344 0 c279 0 350 -3 373
-14z"/>
<path d="M3022 2933 l3 -257 121 -38 121 -38 114 39 114 38 3 256 2 257 -240
0 -240 0 2 -257z"/>
<path d="M4276 4197 c-139 -363 -200 -600 -222 -874 l-7 -82 172 -221 c95
-122 183 -226 196 -232 18 -8 79 8 336 87 173 53 324 103 336 111 50 32 55 22
-352 702 -213 356 -391 650 -394 654 -4 4 -33 -61 -65 -145z"/>
<path d="M376 3699 c-207 -352 -376 -651 -376 -663 0 -12 10 -32 22 -42 33
-29 645 -218 670 -207 10 4 96 108 191 230 l173 223 -8 92 c-16 196 -56 380
-128 593 -52 155 -153 415 -161 415 -3 0 -176 -288 -383 -641z"/>
</g>
</svg>
