<?xml version="1.0" standalone="no"?>
<!DOCTYPE svg PUBLIC "-//W3C//DTD SVG 20010904//EN"
 "http://www.w3.org/TR/2001/REC-SVG-20010904/DTD/svg10.dtd">
<svg version="1.0" xmlns="http://www.w3.org/2000/svg"
 width="643.000000pt" height="485.000000pt" viewBox="0 0 643.000000 485.000000"
 preserveAspectRatio="xMidYMid meet">

<g transform="translate(0.000000,485.000000) scale(0.100000,-0.100000)"
fill="#000000" stroke="none">
<path d="M675 4837 c-59 -20 -132 -65 -154 -95 -22 -33 -27 -52 -41 -165 -6
-48 -17 -102 -25 -120 -7 -18 -16 -40 -19 -50 -5 -14 -10 -16 -25 -8 -17 9
-20 6 -26 -26 -5 -29 -29 -60 -109 -142 -117 -120 -127 -141 -169 -331 -38
-173 -46 -265 -52 -615 -5 -370 -27 -721 -51 -861 -5 -27 -2 -32 25 -44 17 -7
31 -20 31 -29 0 -9 12 -133 25 -276 14 -143 28 -330 31 -415 6 -153 6 -157
-35 -355 -38 -187 -41 -212 -41 -365 0 -91 7 -270 16 -398 15 -230 14 -252
-12 -359 -5 -17 -2 -23 10 -23 9 0 16 -7 16 -15 0 -23 176 -22 202 2 17 15 19
15 36 0 16 -15 49 -17 248 -17 179 0 234 3 249 14 18 13 18 14 -1 24 -11 6
-52 16 -90 23 -70 12 -115 29 -147 57 -12 11 -14 18 -6 23 8 5 -2 23 -30 57
-58 68 -81 134 -81 230 0 111 28 370 121 1112 70 560 85 657 101 672 14 12 18
30 18 77 0 33 4 62 10 66 5 3 18 -12 29 -34 l21 -39 -21 -47 c-22 -50 -19 -71
6 -39 14 18 14 17 9 -13 -9 -47 8 -41 34 12 20 41 25 45 59 45 45 0 33 -18
-19 -30 -19 -4 -27 -9 -18 -12 8 -3 29 -9 46 -15 36 -12 64 -3 106 32 16 14
38 25 48 25 25 0 35 16 58 92 18 60 259 528 272 528 12 0 81 -314 92 -420 17
-152 16 -1115 -1 -1465 -23 -499 -55 -880 -81 -974 -5 -19 -7 -38 -4 -42 10
-17 134 -48 260 -65 181 -25 753 -26 1001 -1 212 22 390 50 508 81 104 28 205
64 205 74 0 4 -19 13 -42 20 -100 31 -259 180 -390 363 -236 330 -552 967
-681 1374 -20 61 -61 191 -92 289 -80 252 -161 433 -256 573 -18 26 -81 95
-140 153 -80 79 -110 115 -119 145 -7 22 -14 114 -16 205 -3 95 -9 166 -14
168 -6 2 -10 21 -10 41 0 48 -26 123 -77 226 -38 76 -82 181 -98 234 l-7 24
35 -21 c38 -25 90 -29 108 -9 7 7 26 11 45 9 48 -6 89 36 81 84 -3 18 -1 36 4
39 14 9 11 37 -10 78 l-18 36 36 13 c51 18 203 15 280 -5 136 -37 261 -119
302 -198 10 -21 28 -78 40 -126 11 -49 25 -101 31 -118 49 -130 186 -171 336
-99 l60 29 84 -81 c61 -59 105 -91 163 -120 76 -37 83 -39 175 -38 140 1 233
43 412 185 80 63 91 68 328 154 229 83 491 167 498 160 2 -2 -11 -36 -28 -76
-80 -182 -26 -184 263 -11 185 111 193 115 236 107 20 -4 99 -36 176 -72 289
-136 381 -157 660 -158 147 0 210 5 280 19 188 39 342 107 431 191 56 53 22
43 -38 -11 -149 -133 -515 -198 -844 -149 -134 20 -226 51 -405 135 -80 38
-158 72 -172 76 -15 3 -27 10 -27 15 0 14 153 57 240 68 45 6 114 8 153 5 56
-4 76 -1 91 10 11 9 16 19 12 23 -4 4 -59 7 -124 6 -129 -1 -214 -19 -348 -73
-70 -28 -83 -30 -153 -24 -67 6 -176 -3 -293 -22 l-37 -6 21 62 c38 111 0 148
-120 117 -150 -40 -491 -245 -692 -417 -72 -62 -185 -94 -335 -95 -89 0 -105
3 -145 25 -29 16 -58 45 -82 80 -20 30 -45 58 -56 63 -36 16 -106 -2 -187 -48
-43 -25 -81 -45 -84 -45 -11 0 -79 115 -124 210 -59 122 -127 205 -221 268
-110 73 -176 94 -326 99 -151 6 -254 -15 -388 -77 -48 -23 -93 -38 -103 -35
-16 5 -16 9 -3 40 20 49 17 114 -8 180 -35 93 -114 135 -253 135 l-71 0 -62
-56 c-44 -40 -65 -68 -72 -95 -8 -30 -18 -41 -50 -55 -33 -15 -39 -21 -34 -40
3 -12 1 -25 -5 -29 -8 -4 -8 -12 -1 -26 6 -10 7 -19 3 -19 -9 0 -33 -70 -33
-95 0 -17 38 -35 73 -35 50 0 95 -20 106 -48 20 -49 41 -166 41 -233 0 -74
-33 -170 -78 -228 -102 -129 -112 -144 -112 -174 1 -46 32 -108 76 -151 l38
-36 -13 -106 c-11 -93 -23 -136 -102 -348 -50 -132 -94 -245 -98 -249 -4 -4
-21 -3 -37 3 l-29 12 33 27 c17 15 32 31 32 36 0 4 -23 39 -51 77 -68 91 -149
272 -149 331 0 24 9 110 20 190 31 229 34 318 16 432 -55 350 -73 421 -123
497 -18 28 -18 28 15 60 l32 33 49 -18 c73 -26 90 -23 107 18 8 19 19 35 24
35 6 0 10 7 10 15 0 8 7 15 15 15 8 0 15 9 15 20 0 13 7 20 19 20 28 0 31 10
19 59 -8 33 -8 48 0 62 7 10 12 32 12 48 0 20 9 39 26 55 24 21 26 30 22 75
-6 64 -42 112 -116 154 -62 35 -153 45 -217 24z m1545 -587 c169 -57 278 -160
365 -345 23 -49 56 -110 74 -135 l31 -45 -43 -19 c-101 -46 -212 -24 -263 53
-13 20 -38 91 -54 156 -37 145 -64 193 -127 232 -95 59 -256 103 -374 103 -34
0 -60 2 -57 5 15 16 109 24 238 21 117 -3 158 -8 210 -26z m2169 -96 c20 -14
23 -23 18 -58 -10 -84 -16 -89 -124 -121 -82 -24 -206 -67 -577 -201 -35 -13
-37 -12 -26 2 20 23 183 143 282 208 116 76 247 145 317 167 70 23 81 23 110
3z m340 -150 c29 -6 21 -12 -135 -105 -201 -118 -244 -132 -244 -76 1 41 57
151 82 159 60 20 241 33 297 22z m-1758 -194 c11 -6 30 -28 44 -50 38 -60 75
-89 135 -107 68 -20 190 -13 304 16 44 12 81 20 82 18 9 -9 -141 -115 -204
-145 -139 -66 -269 -51 -408 47 -60 42 -170 148 -162 156 2 2 35 19 73 39 73
37 103 43 136 26z"/>
<path d="M3436 3474 c-10 -27 -7 -34 18 -34 28 0 38 19 20 37 -17 17 -31 16
-38 -3z"/>
<path d="M2005 3277 c-8 -13 -18 -37 -21 -55 l-6 -32 49 0 c27 0 54 5 61 12
16 16 15 47 -2 54 -8 3 -16 14 -19 25 -7 26 -43 24 -62 -4z"/>
<path d="M5477 3223 c-4 -3 -7 -26 -7 -49 l0 -43 33 6 c17 3 38 11 45 17 15
14 6 46 -13 46 -7 0 -15 7 -19 15 -6 15 -28 20 -39 8z"/>
<path d="M2232 2988 c-15 -15 -15 -60 0 -110 13 -43 19 -43 75 -5 57 39 66
103 13 95 -19 -3 -31 1 -39 14 -13 21 -32 23 -49 6z"/>
<path d="M4566 2981 c-10 -11 -20 -38 -23 -62 l-6 -42 46 5 c26 3 54 11 62 18
22 18 19 50 -4 50 -13 0 -21 8 -23 22 -4 30 -30 34 -52 9z"/>
<path d="M5003 2949 c-6 -6 -9 -18 -6 -25 3 -9 -1 -14 -12 -14 -11 0 -15 -7
-13 -22 3 -20 10 -23 56 -26 60 -4 66 9 32 66 -21 33 -38 40 -57 21z"/>
<path d="M3126 2894 c-3 -9 2 -32 11 -51 l17 -36 28 32 c32 36 32 56 -1 55
-11 0 -21 3 -21 8 0 15 -28 8 -34 -8z"/>
<path d="M2490 2767 c0 -41 21 -73 44 -64 9 4 16 13 16 22 0 8 7 15 15 15 9 0
18 7 22 16 9 23 -23 44 -64 44 -31 0 -33 -2 -33 -33z"/>
<path d="M2761 2741 c-12 -8 -12 -12 -2 -25 20 -24 41 -19 41 9 0 26 -14 31
-39 16z"/>
<path d="M3706 2735 c-9 -24 -8 -25 15 -25 14 0 19 5 17 17 -4 23 -24 27 -32
8z"/>
<path d="M3274 2665 c-4 -8 -4 -21 -1 -29 3 -8 -2 -16 -14 -19 -21 -6 -25 -37
-7 -55 12 -12 87 -16 125 -6 20 6 21 7 6 42 -8 21 -24 47 -36 60 -23 25 -65
29 -73 7z"/>
<path d="M2330 2594 c-14 -35 -14 -34 25 -34 27 0 35 4 35 18 0 43 -45 56 -60
16z"/>
<path d="M4116 2584 c-10 -10 -16 -33 -16 -64 0 -72 5 -81 43 -68 58 20 88 47
85 77 -2 20 -9 27 -30 29 -16 2 -28 9 -28 17 0 7 -7 16 -16 19 -21 8 -20 8
-38 -10z"/>
<path d="M3960 2556 c0 -25 12 -46 26 -46 8 0 14 5 14 10 0 6 7 10 16 10 11 0
14 5 10 16 -3 9 -6 18 -6 20 0 2 -13 4 -30 4 -19 0 -30 -5 -30 -14z"/>
<path d="M3097 2413 c-4 -3 -7 -17 -7 -30 0 -19 5 -23 30 -23 35 0 39 18 10
43 -23 19 -24 20 -33 10z"/>
<path d="M3746 2365 c-14 -15 -19 -27 -31 -87 -2 -15 4 -18 33 -18 21 0 48 6
62 13 32 16 39 47 11 54 -11 3 -21 15 -23 26 -4 27 -30 33 -52 12z"/>
</g>
</svg>
