<svg id="Capa_1" data-name="Capa 1" xmlns="http://www.w3.org/2000/svg" viewBox="0 0 769.21 523.66"><defs><style>.cls-1,.cls-2,.cls-3,.cls-4,.cls-5,.cls-6{fill:#fff;}.cls-2,.cls-3,.cls-4,.cls-5{isolation:isolate;font-family:Georgia;}.cls-2{font-size:23px;letter-spacing:0.61em;}.cls-3,.cls-5{font-size:16px;}.cls-3{letter-spacing:0.07em;}.cls-4{font-size:19.8px;letter-spacing:0.05em;}.cls-5{letter-spacing:0.07em;}.cls-6{stroke:#fff;stroke-miterlimit:10;}</style></defs><path class="cls-1" d="M156.87,302.69a17,17,0,0,1-1.9-.1,9,9,0,0,1-6.59-3.42,6,6,0,0,1-1.06-3.6c0-2.44,1-5.5,3-9.21a98.2,98.2,0,0,1,12.94-17.92q4.25-4.83,5.42-6.13a154.57,154.57,0,0,0-13.27-10.82l-1.35-1q-5.51-4-11-8.37a93.71,93.71,0,0,1-10.16-9.39A45,45,0,0,1,125,221a38.73,38.73,0,0,1-3.49-16.64,62.83,62.83,0,0,1,3.1-19.23,77.48,77.48,0,0,1,9.05-18.83,93.09,93.09,0,0,1,13.48-16.34,79.28,79.28,0,0,1,17.68-13,42.4,42.4,0,0,1,17.68-5.28l1,0a22.33,22.33,0,0,1,9.43,2q5,2.44,7.32,8.89A35.31,35.31,0,0,1,202,154.36a59.35,59.35,0,0,1-2.48,15.88,85.77,85.77,0,0,1-8.31,20.34q-5.4,9.31-10.56,10.74l-.21,0c-.49,0-.87-.32-1.15-1a2.38,2.38,0,0,1-.16-.89q0-1.84,2.52-5a13.15,13.15,0,0,1,8.19-5.22,75,75,0,0,0,7.48-18.52,106.55,106.55,0,0,0,2.43-10.9,39.16,39.16,0,0,0,.57-6.42,27.86,27.86,0,0,0-.21-3.49,26.5,26.5,0,0,0-2.24-8.27,12.33,12.33,0,0,0-5.77-5.61,17,17,0,0,0-7.5-1.64,38.23,38.23,0,0,0-7.44,1.1q-4.95,1.09-12.77,5.91a89.53,89.53,0,0,0-15.1,11.83,92.44,92.44,0,0,0-13.24,16.14,83.86,83.86,0,0,0-9.35,19.27,57.36,57.36,0,0,0-3,18.28,29.2,29.2,0,0,0,3.19,14,46.9,46.9,0,0,0,7.44,10.15,67.63,67.63,0,0,0,8.06,7.32q4.43,3.44,9.07,6.66,2.78,2,5.44,3.89l2.94,2.16a120.36,120.36,0,0,1,11.11,8.76,177.43,177.43,0,0,1,16.23-15.17,201.94,201.94,0,0,1,17.42-12.92,1.64,1.64,0,0,1,.71-.21.62.62,0,0,1,.44.18,1.12,1.12,0,0,1,.34.83c0,.05,0,.19,0,.4s-.22.43-.59.64a107.4,107.4,0,0,0-16.68,11.51,177.64,177.64,0,0,0-17,15.66c.26.28.57.59.92.94.67.68,1.36,1.39,2.07,2.14a28,28,0,0,1,4.64,6.78,17.65,17.65,0,0,1,1.81,7.82,22,22,0,0,1-2.09,9,26.28,26.28,0,0,1-6.76,9,27.06,27.06,0,0,1-8.8,5.07A20,20,0,0,1,156.87,302.69Zm.55-2.89c.57,0,1.4,0,2.5-.1a15.54,15.54,0,0,0,3.74-.78,28.45,28.45,0,0,0,8-4.24,19.86,19.86,0,0,0,6.12-7.52,15.64,15.64,0,0,0,1.33-5.56c0-.49,0-1,0-1.43a20.47,20.47,0,0,0-.3-3.62,12.77,12.77,0,0,0-1.76-4.19,38.07,38.07,0,0,0-3-4.16c-.47-.61-1.77-2-3.88-4.17l-.8-.83c-.63.69-1.24,1.36-1.84,2q-1.93,2-3.69,4.12a103.1,103.1,0,0,0-12.21,17.58,18.41,18.41,0,0,0-2,5.61,8.71,8.71,0,0,0-.11,1.41,6.72,6.72,0,0,0,1,3.55q1,1.69,4.45,2.24C155.83,299.75,156.59,299.8,157.42,299.8Z"/><path class="cls-1" d="M229.07,243.8q-3.28-.18-4.77-4a17.9,17.9,0,0,1-.8-5.58q0-.24,0-2.07a25.4,25.4,0,0,1,.18-2.92,16.48,16.48,0,0,1,.42-2.07,6.43,6.43,0,0,0,.23-1.07s0-.08-.05-.08-.09.08-.18.23a29.71,29.71,0,0,1-1.54,2.58q-.48.73-1.26,2-6.47,10.62-12,10.61a5.54,5.54,0,0,1-5.4-4.23,6.3,6.3,0,0,1-.21-1.64,11.49,11.49,0,0,1,.68-3.44,16.07,16.07,0,0,1,3.13-4.95,17,17,0,0,1,4.59-3.76,15.94,15.94,0,0,1,7.55-2.27,5,5,0,0,1,3.47,1.1,3.18,3.18,0,0,1,.53,1.28,11.85,11.85,0,0,1,1-1.8,2.84,2.84,0,0,1,.62-.81,1.33,1.33,0,0,1,1.15-.52,5.46,5.46,0,0,1,.69.1c.43.12.64.65.64,1.59a45.41,45.41,0,0,1-.71,5.76,40.58,40.58,0,0,0-.57,7.2,13.44,13.44,0,0,0,.16,2.22q.71,4.54,3.56,4.54,3.65,0,8.54-5.53a51.87,51.87,0,0,0,3.35-4.8.82.82,0,0,1,.67-.34c.47,0,.71.18.71.55a1.93,1.93,0,0,1-.57,1.25q-5.23,7.63-10.79,10.2A9.22,9.22,0,0,1,229.07,243.8ZM210,239.32a6,6,0,0,0,2.81-.91,16.23,16.23,0,0,0,2.63-2.09,37.15,37.15,0,0,0,7.07-10.09l.46-.86a4.09,4.09,0,0,1-1.24.26l-.37,0a1,1,0,0,1-.54-.31,2.61,2.61,0,0,1-.47-.69,2.48,2.48,0,0,0-.59-.76,1.64,1.64,0,0,0-1.14-.34h-.11q-3.65.94-8,5.92c-2,2.29-3,4.53-3,6.7a3.73,3.73,0,0,0,.8,2.5A2.22,2.22,0,0,0,210,239.32Z"/><path class="cls-1" d="M249.24,262.27h-.16a1.69,1.69,0,0,1-.53-.08,2.65,2.65,0,0,1-1.22-1.17l-.05-.08q-1.74-3.07-3.05-11.16A87.23,87.23,0,0,1,243,235.51c0-1.25,0-2.44.11-3.57-.58,0-1-.37-1.31-1.1a3,3,0,0,1-.18-1.07,9.76,9.76,0,0,1,.63-2.88,16.72,16.72,0,0,1,3.61-5.07,1.78,1.78,0,0,1,1.15-.52,1.2,1.2,0,0,1,1.06.55,1.75,1.75,0,0,1,.18.86,5.36,5.36,0,0,1-.16,1.2l-.39,1.23a30,30,0,0,0-1.81,9,97.87,97.87,0,0,0,1.15,15.1,43.44,43.44,0,0,0,1.4,6.78,6.79,6.79,0,0,0,.37.94c.23.69.48,1,.76,1s.47-.23.83-.68a27.17,27.17,0,0,0,2.43-5.87c.51-1.46,1.19-3.49,2.07-6.1q2.13-6.54,4.68-13.43,2.73-7.48,3.56-9.55a77.18,77.18,0,0,1,5.37-10.82,25,25,0,0,1,3.74-5,2,2,0,0,1,1-.37.62.62,0,0,1,.71.7,4,4,0,0,1-.17.85,6.68,6.68,0,0,1-1.57,2.07,24.08,24.08,0,0,0-2.68,3.76A76.72,76.72,0,0,0,264,224.72q-1.26,3.08-3,7.82-3.73,10.14-7.25,20.39-2.39,7-3,8.24a2.24,2.24,0,0,1-.8.91A1.4,1.4,0,0,1,249.24,262.27Z"/><path class="cls-1" d="M277.31,248.26a5.72,5.72,0,0,1-4.87-2.4,12.12,12.12,0,0,1-1.72-6.55l0-.91a33.21,33.21,0,0,1,1.24-8.63q1.78-6.11,5-8.48a4.58,4.58,0,0,1,2.92-1,3.16,3.16,0,0,1,2.36,1.59,4.44,4.44,0,0,1,.69,2.3,6.63,6.63,0,0,1-1.89,4.6,7.24,7.24,0,0,1-3.18,2,6.55,6.55,0,0,1-1.47.18,13.2,13.2,0,0,1-1.38-.18c-.18,0-.3.12-.34.36a32.46,32.46,0,0,0-1.08,6.6v.81c0,.45-.05.89-.05,1.3a11.27,11.27,0,0,0,.85,4.67,3.37,3.37,0,0,0,3.07,1.62l.78,0q4.29,0,12.44-7.54a87,87,0,0,0,6.72-6.78.54.54,0,0,1,.39-.18.58.58,0,0,1,.55.37.82.82,0,0,1,.14.44,1.77,1.77,0,0,1-.6,1.15l-5.92,6a67.53,67.53,0,0,1-7.24,6.05,14.83,14.83,0,0,1-6.67,2.58A4,4,0,0,1,277.31,248.26Zm-.57-19a4.28,4.28,0,0,0,3.28-1.75,4.4,4.4,0,0,0,1.19-3c0-.87-.38-1.3-1-1.3a2.47,2.47,0,0,0-1.61.78A13.11,13.11,0,0,0,277,226a18.54,18.54,0,0,0-1.39,2.4,1,1,0,0,0-.11.44.45.45,0,0,0,.09.26.62.62,0,0,0,.44.18A3.09,3.09,0,0,0,276.74,229.3Z"/><path class="cls-1" d="M340.08,280.84q-1.74,0-4.7-14a175.34,175.34,0,0,1-2.87-19.72q-.9-9.39-.9-20.66,0-6.63.32-14.79.21-5.48.69-10.74l.28-3.34c.12-1.7.21-2.76.28-3.18l.18-1.77Q309.6,196,306,197.85l.3.29a.86.86,0,0,1,.23.57.64.64,0,0,1-.23.43,1.94,1.94,0,0,1-.64.38,7.64,7.64,0,0,1-2.78.42,8.29,8.29,0,0,1-2.62-.39c-.84-.26-1.32-.66-1.42-1.2s.35-1,1.06-1.36a18.35,18.35,0,0,1,5.14-1.77q13.35-2.83,28.53-4.93,1.08-11.58,2.34-18.88a13.59,13.59,0,0,1,1.08-4.35c.5-1,1-1.57,1.58-1.59s1.24.86,1.65,2.58a7.34,7.34,0,0,1,.18.86c.09.89.14,2.07.14,3.55a54.21,54.21,0,0,1-.62,7.93,64.1,64.1,0,0,1-2,9.31q7.54-1,12-1.46a3.64,3.64,0,0,0,2.29-.77,3.8,3.8,0,0,0,.71-2.52q.57-7.62,1.35-15c.06-.8.12-1.63.16-2.48.09-1.56.21-3.05.34-4.45a12.1,12.1,0,0,1,.69-3.27c.55-1,1.09-1.43,1.61-1.43a1.11,1.11,0,0,1,1,.63,1.59,1.59,0,0,1,.25.89,1.51,1.51,0,0,1-.05.42q-1.56,11.87-2.64,24.49c0,.42-.07.78-.07,1.1,0,.75.13,1.21.38,1.38a2.19,2.19,0,0,0,1.21.26c.27,0,.87-.05,1.79-.16q16.92-1.56,32.31-2.79l10.88-.91a1.41,1.41,0,0,1,.66.35.78.78,0,0,1,.21.56,1.32,1.32,0,0,1-.3.83l-.35.44q-16.71.49-43.51,3.6a6.38,6.38,0,0,0-3.1.72c-.51.37-.77,1.31-.8,2.8q-1.29,17.16-1.9,31.15t-.76,20.72c0,.43.11.65.25.65s.79-.81,1.54-2.43q1.31-2.93,2.69-6.81a120.5,120.5,0,0,1,5-12c.52-1.11,1.08-2.16,1.67-3.16q1.63-2.72,3.42-2.71a3,3,0,0,1,1,.18,4.39,4.39,0,0,1,1.91,2.4,14.8,14.8,0,0,1,.71,3.16,34.39,34.39,0,0,1,.3,3.89,79.71,79.71,0,0,0,.78,8.18,14.73,14.73,0,0,0,2.34,6.48,4.22,4.22,0,0,0,3.35,1.46,4,4,0,0,0,1.77-.39,13.76,13.76,0,0,0,4.48-3.78,49.9,49.9,0,0,0,4.11-6.49l.69-1.25c.2-.57.5-.86.89-.86a.54.54,0,0,1,.43.21.81.81,0,0,1,.17.52,2.14,2.14,0,0,1-.12.63L389,234c-.49.89-1.13,2-1.93,3.23a34.74,34.74,0,0,1-5.1,6.55q-3,2.84-6.06,2.84c-.23,0-.73,0-1.51-.09a4.24,4.24,0,0,1-2.59-1.73,16.6,16.6,0,0,1-2.95-7.17,58.17,58.17,0,0,1-.79-7.93L368,228.2q-.27-5.43-1.06-6.49a.79.79,0,0,0-.69-.31c-.43,0-.9.37-1.4,1.1a24,24,0,0,0-1.68,3l0,.13q-2.52,5.11-5,11.28t-4,10.84l-1.58,4.67a1.13,1.13,0,0,1-1.05.84,1.29,1.29,0,0,1-.86-.37,1.45,1.45,0,0,1-.43-1.15l.14-8.4q.12-8.37.61-21.71t1.5-28.81a5.25,5.25,0,0,0,.07-.83,2.23,2.23,0,0,0-.26-1.2,1.24,1.24,0,0,0-1.09-.39q-.66,0-13.93,1.8l-1.08,2.74c-.26,2.89-.51,5.22-.76,7s-.49,4.07-.69,6.59-.36,6.29-.48,11.33c-.12,4.62-.18,8.88-.18,12.75q0,7.74.42,15.61a105.09,105.09,0,0,0,2.49,17.15,33.62,33.62,0,0,0,3.24,8.4,11.13,11.13,0,0,1,1.63,4.49,4,4,0,0,1-.09.86C341.32,280.25,340.8,280.84,340.08,280.84Z"/><path class="cls-1" d="M394.4,248.26a5.72,5.72,0,0,1-4.87-2.4,12.12,12.12,0,0,1-1.72-6.55l0-.91a33.21,33.21,0,0,1,1.24-8.63q1.79-6.11,5-8.48a4.57,4.57,0,0,1,2.91-1,3.16,3.16,0,0,1,2.36,1.59,4.44,4.44,0,0,1,.69,2.3,6.63,6.63,0,0,1-1.89,4.6,7.24,7.24,0,0,1-3.18,2,6.55,6.55,0,0,1-1.47.18,13.2,13.2,0,0,1-1.38-.18c-.18,0-.3.12-.35.36a33.91,33.91,0,0,0-1.08,6.6v.81c0,.45,0,.89,0,1.3a11.27,11.27,0,0,0,.85,4.67,3.37,3.37,0,0,0,3.07,1.62l.78,0q4.29,0,12.44-7.54a89.24,89.24,0,0,0,6.72-6.78.54.54,0,0,1,.39-.18.58.58,0,0,1,.55.37.82.82,0,0,1,.14.44,1.77,1.77,0,0,1-.6,1.15l-5.92,6a67.53,67.53,0,0,1-7.24,6.05,14.83,14.83,0,0,1-6.67,2.58A3.65,3.65,0,0,1,394.4,248.26Zm-.57-19a4.28,4.28,0,0,0,3.28-1.75,4.4,4.4,0,0,0,1.19-3c-.05-.87-.38-1.3-1-1.3a2.49,2.49,0,0,0-1.61.78,13.11,13.11,0,0,0-1.55,1.93,18.54,18.54,0,0,0-1.39,2.4,1.08,1.08,0,0,0-.12.44.45.45,0,0,0,.09.26.62.62,0,0,0,.44.18A3.3,3.3,0,0,0,393.83,229.3Z"/><path class="cls-1" d="M440.92,311.2a12.53,12.53,0,0,1-9.48-3.81q-3.76-4-3.76-10.64A35,35,0,0,1,429,288a33.22,33.22,0,0,1,3.72-8.61,70.33,70.33,0,0,1,10.13-12.56,132.66,132.66,0,0,1,11.46-9.95l0-2.06c0-.75,0-1.58,0-2.5q1.08-42.19,4.31-102c-1.22-.42-1.9-1.5-2-3.23,0-.36-.05-.74-.05-1.12a24.33,24.33,0,0,1,.62-5,51.61,51.61,0,0,1,1.42-5.29c.53-1.62.86-2.52,1-2.71a1.8,1.8,0,0,1,2.41-.84.87.87,0,0,1,.46.83v.21l-1.1,20.58q-1.08,20.61-2.3,48.09-.22,5-.37,9.7-.12,3.63-.27,7.48,4.41-25.59,13.63-44.75,5.58-11.24,12.42-14.76a13.89,13.89,0,0,1,6.49-1.7l1.93.05a11,11,0,0,1,4.84,1.88q6.19,3.75,9.8,13.14,3.35,8.79,3.35,21.41v1.8a150.41,150.41,0,0,1-6.36,38.62l4-.83q8.63-1.94,15.35-2.89h.07a1,1,0,0,1,.87.36.74.74,0,0,1,.16.47,1.4,1.4,0,0,1-.15.52c-.1.23-.45.39-1,.5q-7.15.85-19.83,3.76a153.81,153.81,0,0,1-11,25.77A140.8,140.8,0,0,1,477,285.77,117.35,117.35,0,0,1,456.62,305Q448.1,311.19,440.92,311.2Zm-.73-3.06a22.24,22.24,0,0,0,6.25-1.13,31,31,0,0,0,8.66-4.73,115.86,115.86,0,0,0,19.48-18.22A136.31,136.31,0,0,0,489.85,262a146.5,146.5,0,0,0,10.78-24.34,149.65,149.65,0,0,0-22.1,7.48,113.61,113.61,0,0,0-21.09,11.63q-.21,6.44-.21,12.65,0,6.6.23,13,0,1.38-1.26,1.38-2.59,0-3-6.26c0-.49-.05-1-.05-1.56a66.39,66.39,0,0,1,.94-9.83q0-3.36.07-6.86-3.21,2.37-6.83,5.41a82.22,82.22,0,0,0-7.09,6.74,53.43,53.43,0,0,0-6.23,8.06,32,32,0,0,0-3.86,9,30.67,30.67,0,0,0-.87,6.65v.44q0,6.28,3.6,9.83a9.17,9.17,0,0,0,5.28,2.63A12.12,12.12,0,0,0,440.19,308.14Zm17.4-53.59a94.51,94.51,0,0,1,14.5-8.5,148.51,148.51,0,0,1,15.12-6.18q7.5-2.58,14.09-4.46A147.81,147.81,0,0,0,508,196l0-2.11a67.6,67.6,0,0,0-1.41-14.12,40.46,40.46,0,0,0-4.1-11.4,18,18,0,0,0-6.06-6.82,15.08,15.08,0,0,0-5.26-2,9.27,9.27,0,0,0-1.58-.13,10.48,10.48,0,0,0-4.54,1.1q-5.9,3-11.29,13.85Q459.84,203.48,457.59,254.55Z"/><path class="cls-1" d="M581.59,283.37q-1.73,0-4.7-14A173.14,173.14,0,0,1,574,249.65q-.9-9.36-.89-20.66,0-7.12.37-14.84.18-4.2.76-11.89A152.71,152.71,0,0,1,563,228.52q-5.2,9.6-10.88,12.62a7.52,7.52,0,0,1-3.35.91,6.52,6.52,0,0,1-2.66-.76q-1.6-.75-2.55-4.46a21.24,21.24,0,0,1-.6-4.72,17.89,17.89,0,0,1,.69-5.06,5.86,5.86,0,0,0,.23-1.07s0-.08,0-.08-.11.08-.21.23a25.4,25.4,0,0,1-1.54,2.61l-1.26,2a45.81,45.81,0,0,1-4.87,6.52q-3.51,4.13-7.07,4.12a5.94,5.94,0,0,1-3.37-1,5.14,5.14,0,0,1-2.11-3,6.93,6.93,0,0,1-.18-1.62,12.4,12.4,0,0,1,.68-3.56,15.42,15.42,0,0,1,3.16-5.05,19.69,19.69,0,0,1,3.79-3.33,16.53,16.53,0,0,1,4.84-2.28,11.44,11.44,0,0,1,3.08-.42,12.19,12.19,0,0,1,2.23.21,4.93,4.93,0,0,1,1.35.7,2.49,2.49,0,0,1,.85,1.46l.16-.31a12.82,12.82,0,0,1,1.38-2.22,1.87,1.87,0,0,1,1.4-.63,1.12,1.12,0,0,1,.94.5,3.56,3.56,0,0,1,.3,1.69,50.24,50.24,0,0,1-.55,5.53,52.32,52.32,0,0,0-.64,7.46c.06,2.09.57,3.55,1.52,4.38a2.44,2.44,0,0,0,1.61.57,5.12,5.12,0,0,0,2.36-.7,16.86,16.86,0,0,0,4.85-4.15,67.51,67.51,0,0,0,5.29-7.77,92.22,92.22,0,0,0,7-14.42q3.15-8.12,5.93-17.19c.23-1.69.4-3.44.51-5.27q-12.55.85-21.78,1.89t-11.7,1.92l.3.29a1,1,0,0,1,.18.55.6.6,0,0,1-.27.47,4,4,0,0,1-2.55.6c-.23,0-.66,0-1.3-.07a7.35,7.35,0,0,1-2.19-.56c-.83-.33-1.28-.76-1.35-1.3s.37-.91,1.12-1.28A17.69,17.69,0,0,1,541,192q16.19-2.25,34.52-3.21,1-9.81,1.93-14.89a13.74,13.74,0,0,1,1.08-4.36c.51-1,1-1.57,1.58-1.59s.78.28,1.06.83a8.87,8.87,0,0,1,.78,2.63,32.43,32.43,0,0,1,.14,3.6,60.34,60.34,0,0,1-1.65,13.51,1.39,1.39,0,0,1,.3,0l1.42-.08q22.21-1,38.62-1.12c.54.23.8.55.8,1a1.45,1.45,0,0,1-.34.83l-.39.42q-3.89-.13-8.35-.13-13.8,0-32.57,1.17a51.56,51.56,0,0,1-1.88,5.63c-.15.38-.3.77-.44,1.17l-.16.94q-1.35,8-1.79,24-.16,6.88-.16,12.65,0,7.8.41,15.7a103.29,103.29,0,0,0,2.48,17.16,28.45,28.45,0,0,0,1.53,4.81c.59,1.36,1.16,2.57,1.71,3.61a10.85,10.85,0,0,1,1.63,4.46,4.48,4.48,0,0,1-.09.89C582.82,282.78,582.3,283.37,581.59,283.37Zm-52.06-44.18a6.09,6.09,0,0,0,2.77-.9,16,16,0,0,0,2.63-2.07,39.62,39.62,0,0,0,7.53-11,3.49,3.49,0,0,1-.92.16,1.87,1.87,0,0,1-1.61-1.12,3.88,3.88,0,0,0-.57-.69,1.21,1.21,0,0,0-.87-.3,1.65,1.65,0,0,0-.46.08,18.41,18.41,0,0,0-5.86,3A14.7,14.7,0,0,0,528.1,231a10,10,0,0,0-1.28,4.95l0,.73a3,3,0,0,0,.83,1.81,2.38,2.38,0,0,0,1.81.74Z"/><path class="cls-1" d="M597.56,248.26a5.73,5.73,0,0,1-4.87-2.4,12.12,12.12,0,0,1-1.72-6.55l0-.91a33.21,33.21,0,0,1,1.24-8.63q1.78-6.11,5-8.48a4.57,4.57,0,0,1,2.91-1,3.16,3.16,0,0,1,2.36,1.59,4.44,4.44,0,0,1,.69,2.3,6.63,6.63,0,0,1-1.89,4.6,7.24,7.24,0,0,1-3.18,2,6.55,6.55,0,0,1-1.47.18,13.2,13.2,0,0,1-1.38-.18c-.18,0-.3.12-.35.36a33.91,33.91,0,0,0-1.08,6.6v.81c0,.45,0,.89,0,1.3a11.27,11.27,0,0,0,.85,4.67,3.38,3.38,0,0,0,3.08,1.62l.78,0q4.29,0,12.44-7.54a89.24,89.24,0,0,0,6.72-6.78.54.54,0,0,1,.39-.18.58.58,0,0,1,.55.37.82.82,0,0,1,.14.44,1.77,1.77,0,0,1-.6,1.15l-5.92,6a67.53,67.53,0,0,1-7.24,6.05,14.83,14.83,0,0,1-6.67,2.58A3.86,3.86,0,0,1,597.56,248.26Zm-.57-19a4.28,4.28,0,0,0,3.28-1.75,4.4,4.4,0,0,0,1.19-3c-.05-.87-.38-1.3-1-1.3a2.49,2.49,0,0,0-1.61.78,13.11,13.11,0,0,0-1.55,1.93,18.54,18.54,0,0,0-1.39,2.4,1.08,1.08,0,0,0-.12.44.45.45,0,0,0,.09.26.62.62,0,0,0,.44.18A3.24,3.24,0,0,0,597,229.3Z"/><text class="cls-2" transform="translate(190.29 348.15) scale(0.93 1)">SANTIAGO &amp; DELIA</text><text class="cls-3" transform="translate(326.55 409.74) scale(0.93 1)">ABRIL</text><text class="cls-4" transform="translate(243.75 409.74) scale(0.93 1)">15</text><text class="cls-5" transform="translate(267.64 409.74) scale(0.93 1)">TH</text><text class="cls-4" transform="translate(423.31 409.74) scale(0.93 1)">2023</text><line class="cls-6" x1="305.83" y1="385.77" x2="305.83" y2="416.07"/><line class="cls-6" x1="409.76" y1="385.77" x2="409.76" y2="416.07"/></svg>