<?xml version="1.0" standalone="no"?>
<!DOCTYPE svg PUBLIC "-//W3C//DTD SVG 20010904//EN"
 "http://www.w3.org/TR/2001/REC-SVG-20010904/DTD/svg10.dtd">
<svg version="1.0" xmlns="http://www.w3.org/2000/svg"
 width="512.000000pt" height="512.000000pt" viewBox="0 0 512.000000 512.000000"
 preserveAspectRatio="xMidYMid meet">

<g transform="translate(0.000000,512.000000) scale(0.100000,-0.100000)"
fill="#000000" stroke="none">
<path d="M2215 5086 c-46 -49 -70 -132 -69 -241 1 -79 5 -99 34 -165 30 -65
34 -86 34 -160 1 -78 -2 -92 -37 -170 -60 -134 -137 -337 -158 -419 -44 -169
-40 -409 11 -716 19 -110 21 -155 17 -290 -7 -216 -31 -314 -157 -665 -80
-222 -106 -328 -119 -496 -12 -157 -31 -238 -96 -417 -54 -149 -76 -220 -110
-357 -34 -136 -76 -223 -136 -281 -60 -59 -111 -83 -235 -114 -110 -27 -134
-45 -134 -101 0 -30 -5 -36 -57 -64 -32 -17 -71 -42 -88 -55 l-30 -25 45 0
c25 0 84 -11 130 -25 115 -33 248 -55 332 -55 65 0 73 -3 106 -31 49 -43 108
-69 161 -69 l45 0 -27 -28 c-15 -15 -27 -36 -27 -47 0 -17 6 -17 98 -9 143 12
191 9 247 -16 54 -24 162 -39 315 -45 52 -1 106 -7 120 -13 30 -11 249 -10
269 2 7 5 57 10 110 12 153 4 262 20 316 44 56 25 104 28 248 16 91 -8 97 -8
97 9 0 11 -12 32 -27 47 l-27 28 45 0 c53 0 112 26 161 69 33 28 41 31 106 31
84 0 217 22 332 55 46 14 105 25 130 25 l45 0 -30 25 c-16 13 -56 38 -87 55
-53 28 -58 34 -58 64 0 56 -24 74 -134 101 -124 31 -175 55 -235 114 -61 60
-102 145 -140 296 -35 137 -63 229 -115 368 -56 151 -75 238 -87 391 -13 168
-39 274 -119 496 -126 351 -150 449 -157 665 -5 145 -2 176 23 325 26 147 29
189 29 380 0 172 -4 229 -18 284 -20 79 -107 310 -164 436 -35 78 -38 92 -37
170 0 74 4 95 34 160 29 66 33 86 34 165 0 63 -5 108 -18 149 -20 59 -71 126
-97 126 -8 0 -75 -38 -149 -85 -74 -47 -142 -85 -150 -85 -8 0 -76 38 -150 85
-74 47 -141 85 -149 85 -7 0 -28 -15 -46 -34z"/>
</g>
</svg>
